<?xml version="1.0" standalone="no"?><!DOCTYPE svg PUBLIC "-//W3C//DTD SVG 1.1//EN" "http://www.w3.org/Graphics/SVG/1.1/DTD/svg11.dtd"><svg t="1668525482515" class="icon" viewBox="0 0 1024 1024" version="1.1" xmlns="http://www.w3.org/2000/svg" p-id="14699" width="256" height="256" xmlns:xlink="http://www.w3.org/1999/xlink"><path d="M503.5 135.7L445 413.4h321.5l43.8-233.8c-160.7-146.2-306.8-43.9-306.8-43.9z" fill="#87C2A5" p-id="14700" data-spm-anchor-id="a313x.7781069.0.i28" class=""></path><path d="M419.1 327.9L342.7 691h420.5L825 401c-204.6-177.6-405.9-73.1-405.9-73.1z" fill="#FC6255" p-id="14701" data-spm-anchor-id="a313x.7781069.0.i29" class=""></path><path d="M375.3 532.5l-76.4 363.1 420.5-0.5 61.8-289.6c-204.7-177.5-405.9-73-405.9-73z" fill="#525893" p-id="14702" data-spm-anchor-id="a313x.7781069.0.i30" class=""></path><path d="M686.9 268l9.8-51.2c4.6-24.1-11.4-47.7-35.5-52.3s-47.7 11.4-52.3 35.5l-9.8 51.2 87.8 16.8z" fill="#e6e6e6" p-id="14703" data-spm-anchor-id="a313x.7781069.0.i34" class=""></path><path d="M540.7 472.6l9.8-51.2c4.6-24.1-11.4-47.7-35.5-52.3-24.1-4.6-47.7 11.4-52.3 35.5l-9.8 51.2 87.8 16.8z" fill="#87C2A5" p-id="14704" data-spm-anchor-id="a313x.7781069.0.i32" class=""></path><path d="M482.2 735.7l9.8-51.2c4.6-24.1-11.4-47.7-35.5-52.3-24.1-4.6-47.7 11.4-52.3 35.5l-9.8 51.2 87.8 16.8zM672.2 779.6l9.8-51.2c4.6-24.1-11.4-47.7-35.5-52.3-24.1-4.6-47.7 11.4-52.3 35.5l-9.8 51.2 87.8 16.8z" fill="#FC6255" p-id="14705" data-spm-anchor-id="a313x.7781069.0.i31" class=""></path><path d="M745.3 501.9l9.8-51.2c4.6-24.1-11.4-47.7-35.5-52.3s-47.7 11.4-52.3 35.5l-9.8 51.2 87.8 16.8z" fill="#87C2A5" p-id="14706" data-spm-anchor-id="a313x.7781069.0.i33" class=""></path></svg>