<?xml version="1.0" standalone="no"?><!DOCTYPE svg PUBLIC "-//W3C//DTD SVG 1.1//EN" "http://www.w3.org/Graphics/SVG/1.1/DTD/svg11.dtd"><svg t="1662210189475" class="icon" viewBox="0 0 1024 1024" version="1.1" xmlns="http://www.w3.org/2000/svg" p-id="19256" data-spm-anchor-id="a313x.7781069.0.i8" xmlns:xlink="http://www.w3.org/1999/xlink" width="200" height="200"><path d="M502.167704 18.962963c104.729284 0 189.62963 84.985679 189.629629 189.819259 0 75.188148-43.671704 140.167901-107.01116 170.900543h168.463802c55.277037 0 100.083358 44.806321 100.083358 100.080198v0.199111c0 55.277037-44.809481 100.083358-100.083358 100.083358l-92.049382-0.00316 121.163851 285.721284c21.285926 50.378272-1.750914 108.436543-51.52553 130.616888l-1.517037 0.663704c-0.018963 0.085333-0.041086 0.094815-0.06321 0.101136-50.887111 21.579852-109.63437-2.180741-131.147852-53.096296l-90.222617-212.764445-90.222618 212.764445c-21.513481 50.915556-80.260741 74.676148-131.147852 53.096296-0.022123-0.006321-0.044247-0.015802-0.037926-0.094815l-0.028444-0.009481c-50.81758-21.671506-74.540247-80.38716-53.039407-131.277432l121.160691-285.721284-96.464593 0.00316C202.831012 580.045432 158.024691 535.235951 158.024691 479.962074v-0.199111c0-55.273877 44.809481-100.080198 100.083358-100.080198h161.438025C356.212938 348.950123 312.541235 283.97037 312.541235 208.782222c0-104.83358 84.900346-189.819259 189.629629-189.819259z" fill="#C48B4E" p-id="19257"></path><path d="M691.579259 208.406123c0 75.226074-43.731753 140.234272-107.156543 170.985877l168.827259-0.00316c55.277037 0 100.083358 44.806321 100.083358 100.080197v0.293926c0 55.277037-44.809481 100.083358-100.083358 100.083358h-92.308543l121.350321 285.907753c21.371259 50.371951-1.681383 108.455506-51.506568 130.575803l-1.517037 0.660543-0.252839 0.107457v0.009481c-26.595556 11.286123-55.340247 10.189432-79.802469-0.695309a85.611457 85.611457 0 0 0 68.854518-2.534716l1.355852-0.663703c44.493432-22.33521 64.123259-75.472593 44.604049-121.460939l-130.607407-307.737284 113.357432 0.003161c50.10963 0 90.731457-40.621827 90.731457-90.731457 0-50.11279-40.621827-90.734617-90.731457-90.734617l-204.822124 0.00316c75.858173-24.892049 130.635852-96.287605 130.635852-180.48 0-80.349235-49.894716-149.048889-120.389531-176.785382 80.352395 22.117136 139.377778 95.721877 139.377778 183.119012z m-195.233185 493.485828l105.336099 248.184098 0.565728 1.305284a86.174025 86.174025 0 0 0 7.831704 13.991507 100.212938 100.212938 0 0 1-11.630617-19.77521l-0.657383-1.517037-90.371161-212.92247-90.364839 212.92247c-19.993284 47.122963-71.863309 70.968889-119.836445 57.078518 38.46637 6.728691 77.884049-13.590123 93.793976-51.083062l105.332938-248.184098z m-306.915555-148.457877a90.336395 90.336395 0 0 0 42.571851 10.587654l127.273087-0.006321-6.71921 15.827753h-95.383704a99.719901 99.719901 0 0 1-67.435457-26.127802z m67.742024-174.048395l157.402074 0.006321c2.926617 1.125136 5.888 2.180741 8.880988 3.163654l-191.336296-0.006321c8.005531-2.063802 16.402963-3.160494 25.053234-3.160493z" fill="#9E6527" p-id="19258"></path><path d="M285.082864 864.034765c8.422716 4.920889 13.201383 5.932247 23.444543 5.840593l1.365334-0.015802c14.127407-0.237037 21.918025 1.178864 33.975308 8.217284 11.614815 6.78558 16.750617 12.692543 23.188544 24.266271l0.720592 1.308445c5.398123 9.892346 8.552296 13.681778 17.351111 18.81758 8.858864 5.176889 19.149432 8.103506 30.934914 8.722963l-3.833679 9.02637-0.616296 1.419062a94.422914 94.422914 0 0 1-3.176297 6.482173c-11.820247-1.415901-22.546963-4.911407-32.148543-10.521284-11.614815-6.78558-16.750617-12.692543-23.191704-24.263111l-0.720592-1.311605c-5.398123-9.892346-8.552296-13.678617-17.351111-18.81442-8.419556-4.920889-13.198222-5.932247-23.441383-5.840593l-1.368494 0.015803c-14.127407 0.237037-21.918025-1.178864-33.968988-8.217284-11.557926-6.750815-21.532444-16.080593-29.923555-27.919803l8.327901-19.614024c8.176198 14.579358 18.321383 25.328198 30.432395 32.401382z m474.595556-35.77995l8.51437 20.059654c-8.795654 13.242469-19.437037 23.552-31.93363 30.852741-11.652741 6.804543-19.320099 8.353185-32.57837 8.236247l-1.390617-0.018963-1.371654-0.015803c-10.24-0.091654-15.018667 0.916543-23.441383 5.840593-8.492247 4.961975-11.725432 8.659753-16.798025 17.812543l-0.549926 1.001877-0.723753 1.311605c-6.437926 11.570568-11.573728 17.477531-23.191704 24.263111-8.773531 5.126321-18.485728 8.485926-29.108148 10.107259a92.99437 92.99437 0 0 1-2.955061-6.068148l-0.616297-1.422222-3.928494-9.247605c10.473877-0.944988 19.712-3.792593 27.77126-8.498568 8.492247-4.961975 11.725432-8.659753 16.798024-17.815704l0.549926-1.001876 0.720593-1.308445c6.441086-11.573728 11.576889-17.477531 23.191704-24.266271 11.652741-6.804543 19.323259-8.356346 32.58153-8.236247l1.390618 0.018963 1.368494 0.015802c10.24 0.091654 15.018667-0.919704 23.444543-5.840593 13.027556-7.610469 23.782716-19.474963 32.256-35.77995zM722.308741 385.580247h19.718321c6.257778 13.403654 9.456198 26.927407 9.522568 40.536494 0.069531 13.476346-2.417778 20.890864-9.130667 32.293926l-0.736395 1.235753-0.695309 1.175703c-5.202173 8.827259-6.716049 13.466864-6.668642 23.223309 0.050568 9.79437 1.627654 14.446617 6.965729 23.343408l0.657382 1.087209 0.774321 1.28c6.801383 11.365136 9.348741 18.763852 9.418272 32.218074 0.050568 10.439111-2.003753 20.805531-6.131358 31.086618h-19.225284c5.300148-10.464395 7.885432-20.786568 7.834864-30.998124-0.050568-9.797531-1.624494-14.449778-6.962568-23.343407l-0.660543-1.09037-0.77116-1.27684c-6.801383-11.365136-9.351901-18.767012-9.418272-32.218074-0.069531-13.476346 2.417778-20.890864 9.130667-32.293926l0.736395-1.235753 0.695308-1.175704c5.202173-8.827259 6.716049-13.470025 6.668642-23.223308-0.069531-13.397333-3.937975-26.917926-11.725432-40.624988z m-450.844445 40.624988c-0.047407 9.753284 1.466469 14.396049 6.665482 23.223308l0.698469 1.175704c7.269136 12.114173 9.936593 19.569778 9.867062 33.529679-0.06637 13.451062-2.616889 20.852938-9.418272 32.218074l-0.774321 1.27684c-5.865877 9.620543-7.569383 14.247506-7.619951 24.430617-0.050568 10.214716 2.531556 20.536889 7.838025 31.001284h-19.231605c-4.124444-10.281086-6.181926-20.647506-6.128197-31.086618 0.06637-13.454222 2.616889-20.852938 9.418271-32.218074l0.774321-1.28c5.865877-9.620543 7.569383-14.244346 7.619951-24.430617 0.050568-9.756444-1.463309-14.396049-6.662321-23.223309l-0.70163-1.175703c-7.269136-12.114173-9.936593-19.572938-9.867061-33.53284 0.069531-13.605926 3.267951-27.129679 9.525728-40.533333h19.721481c-7.787457 13.707062-11.655901 27.227654-11.725432 40.624988z" fill="#FFFFFF" p-id="19259"></path><path d="M502.518519 619.213432c17.455407 0 31.604938 14.203259 31.604938 31.728198 0 17.521778-14.149531 31.725037-31.604938 31.725037s-31.604938-14.203259-31.604939-31.725037c0-17.524938 14.149531-31.728198 31.604939-31.728198zM502.518519 499.358025c17.455407 0 31.604938 14.203259 31.604938 31.725037 0 17.524938-14.149531 31.728198-31.604938 31.728197s-31.604938-14.203259-31.604939-31.728197c0-17.521778 14.149531-31.725037 31.604939-31.725037z" fill="#FACB62" p-id="19260"></path><path d="M596.088099 406.433185c1.659259 30.881185 1.659259 49.682963 0 56.402173-2.49679 10.075654-6.842469 15.811951-17.445926 14.095802-6.264099-1.011358-25.242864-8.508049-56.942617-22.493234a27.692247 27.692247 0 0 1-19.803655 8.327901 27.666963 27.666963 0 0 1-19.421234-7.948642c-31.178272 13.741827-49.872593 21.112099-56.079803 22.117136-10.603457 1.712988-14.949136-4.023309-17.445926-14.098963-1.659259-6.71921-1.659259-25.520988 0-56.402173 2.822321-12.528198 7.446123-18.403556 13.874568-17.622913 5.720494 0.692148 25.672691 9.124346 59.859753 25.299753a27.654321 27.654321 0 0 1 19.212642-7.74321c7.648395 0 14.576198 3.106765 19.617185 8.141432 34.702222-16.434568 54.935704-24.999506 60.697284-25.697975 6.431605-0.780642 11.055407 5.094716 13.874568 17.622913z" fill="#C40000" p-id="19261"></path><path d="M581.236938 243.623506a10.533926 10.533926 0 0 1 14.58884-2.88237 10.473877 10.473877 0 0 1 2.888691 14.554074 115.968 115.968 0 0 1-14.392889 17.477531A115.484444 115.484444 0 0 1 502.518519 306.567901a115.484444 115.484444 0 0 1-81.803062-33.798321 115.968 115.968 0 0 1-14.392889-17.477531 10.473877 10.473877 0 0 1 2.888691-14.550913 10.533926 10.533926 0 0 1 14.58884 2.88237 94.976 94.976 0 0 0 11.788642 14.310716A94.429235 94.429235 0 0 0 502.518519 285.588543a94.429235 94.429235 0 0 0 66.929777-27.654321 94.976 94.976 0 0 0 11.788642-14.310716zM449.934222 142.222222c11.614815 0 21.033086 9.392988 21.033087 20.979358 0 11.589531-9.418272 20.982519-21.033087 20.982519-11.617975 0-21.036247-9.392988-21.036247-20.982519 0-11.58637 9.418272-20.979358 21.036247-20.979358z m101.663605 0c11.617975 0 21.033086 9.392988 21.033087 20.979358 0 11.589531-9.418272 20.982519-21.033087 20.982519-11.617975 0-21.033086-9.392988-21.033086-20.982519 0-11.58637 9.418272-20.979358 21.033086-20.979358z" fill="#4C3030" p-id="19262"></path><path d="M323.84316 143.761383a6.327309 6.327309 0 0 1 4.045433 7.977086 183.48879 183.48879 0 0 0-9.029531 57.046914c0 70.33679 39.891753 133.486617 101.578271 164.285629l1.874173 0.922865 24.778272 12.022518-188.981729-0.006321C206.323358 386.010074 164.345679 428.02884 164.345679 479.864099c0 51.313778 41.143309 93.013333 92.210568 93.838222l1.548642 0.012642h106.015605l-124.855309 294.437926c-20.233481 47.710815 2.003753 102.810864 49.670321 123.063309 47.192494 20.050173 101.609877-1.567605 122.326914-48.298667l0.616296-1.422222 96.009482-226.405136 95.987358 226.354568 0.638419 1.47595c20.533728 46.313877 74.107259 67.887407 120.863605 48.902321l1.415901-0.587852 1.46963-0.638419c46.26963-20.552691 67.824198-74.17679 48.835951-121.027951l-0.587852-1.415901-51.222124-120.794074a6.320988 6.320988 0 1 1 11.425186-5.391803l0.211753 0.44879 51.222123 120.794075c22.480593 53.001481-1.229432 114.157037-53.219555 138.255802l-1.583408 0.717432-1.564444 0.679506c-52.957235 22.502716-114.04958-1.232593-138.123062-53.270123l-0.717432-1.586568-0.679506-1.567605-84.372543-198.962568-84.372544 198.962568c-22.960988 54.14558-85.428148 79.410568-139.52 56.424296-53.551407-22.755556-78.822716-84.261926-57.043753-138.028247l0.676346-1.627654 117.390222-276.837136h-86.91358c-58.763062 0-106.401185-47.68237-106.401185-106.508642 0-58.232099 46.689975-105.551012 104.64395-106.489679l1.760395-0.015802 137.396149 0.006321-1.640297-1.077729A196.102321 196.102321 0 0 1 306.220247 208.782222a196.152889 196.152889 0 0 1 9.655309-60.975407 6.320988 6.320988 0 0 1 7.970765-4.048593zM723.753086 718.121086a6.324148 6.324148 0 1 1-0.006321 12.648297 6.324148 6.324148 0 0 1 0.006321-12.648297zM502.167704 12.641975c108.22163 0 195.950617 87.817481 195.950617 196.140247a196.102321 196.102321 0 0 1-87.646815 163.501827l-1.640296 1.074568h144.418765c58.766222 0 106.404346 47.68237 106.404346 106.505482 0 58.232099-46.689975 105.551012-104.643951 106.492839l-1.760395 0.012642h-82.49521l38.46321 90.706173a6.320988 6.320988 0 1 1-11.425185 5.391803l-0.208592-0.44247-45.931457-108.310123h101.597234c51.784691 0 93.76237-42.018765 93.762371-93.850864 0-51.316938-41.143309-93.013333-92.210568-93.841383l-1.548642-0.012642-196.004346 0.006321 24.775111-12.022518c62.748444-30.448198 103.452444-94.160593 103.452445-165.208494 0-101.338074-82.071704-183.48879-183.308642-183.48879-63.254123 0-120.977383 32.312889-154.469136 84.650666a6.317827 6.317827 0 0 1-8.732445 1.91526 6.330469 6.330469 0 0 1-1.915259-8.741926C372.846617 47.189333 434.56158 12.641975 502.170864 12.641975zM331.851852 120.203062a6.324148 6.324148 0 1 1-0.006321 12.648296 6.324148 6.324148 0 0 1 0.006321-12.648296z" fill="#4C3030" p-id="19263"></path></svg>