<?xml version="1.0" standalone="no"?><!DOCTYPE svg PUBLIC "-//W3C//DTD SVG 1.1//EN" "http://www.w3.org/Graphics/SVG/1.1/DTD/svg11.dtd"><svg t="1661717443100" class="icon" viewBox="0 0 1024 1024" version="1.1" xmlns="http://www.w3.org/2000/svg" p-id="29733" xmlns:xlink="http://www.w3.org/1999/xlink" width="200" height="200"><path d="M596.504854 701.688544v84.504854a84.514796 84.514796 0 0 1-169.01965 0v-84.504854h169.009709z" fill="#F3596B" p-id="29734"></path><path d="M596.504854 786.193398v-84.504854H427.485204v84.504854a84.514796 84.514796 0 0 0 169.009709 0M68.359456 25.649709h887.300971a42.371728 42.371728 0 0 1 42.242486 42.252427v887.300971a42.38167 42.38167 0 0 1-42.252428 42.252427H68.349515a42.391612 42.391612 0 0 1-42.252428-42.252427V67.902136a42.38167 42.38167 0 0 1 42.252428-42.252427" fill="#FFD0AA" p-id="29735"></path><path d="M131.728155 532.678835h253.514563v-169.009709h-253.514563zM638.757282 532.678835h253.514563v-169.009709h-253.514563z" fill="#F8FAFD" p-id="29736"></path><path d="M659.883495 574.931262c0 23.442641 47.322718 42.252427 105.631068 42.252427 58.298408 0 105.621126-18.809786 105.621126-42.252427v-42.252427h-211.262136v42.252427zM152.854369 574.931262c0 23.442641 47.312777 42.252427 105.631068 42.252427 58.30835 0 105.631068-18.809786 105.631068-42.252427v-42.252427h-211.262136v42.252427zM152.854369 258.038058h169.009709v-169.009708h-169.009709z" fill="#948CAA" p-id="29737"></path><path d="M976.776699 955.203107a21.126214 21.126214 0 0 1-21.126214 21.126213H68.349515a21.126214 21.126214 0 0 1-21.136156-21.126213V67.902136c0-11.671612 9.464544-21.126214 21.136156-21.126214h887.30097c11.66167 0 21.126214 9.454602 21.126214 21.126214v887.300971zM955.650485 4.523495H68.349515A63.378641 63.378641 0 0 0 4.970874 67.902136v887.300971a63.378641 63.378641 0 0 0 63.378641 63.378641h887.30097A63.378641 63.378641 0 0 0 1019.029126 955.203107V67.902136A63.378641 63.378641 0 0 0 955.650485 4.523495z" fill="#2F333A" p-id="29738"></path><path d="M131.728155 258.038058H173.980583v-169.009708h-42.252428zM216.23301 258.038058h42.252427v-169.009708h-42.252427zM300.737864 258.038058H342.990291v-169.009708h-42.252427zM638.757282 553.805049h253.514563v-42.252428h-253.514563zM638.757282 384.79534h253.514563v-42.252427h-253.514563zM744.368466 469.300194h42.262369v-42.252427h-42.252427zM765.514563 596.057476c-52.562019 0-81.86035-15.896854-84.514796-21.126214h-42.252427c0 43.564738 65.70501 63.378641 126.757281 63.378641 61.062214 0 126.757282-19.813903 126.757282-63.378641l-42.073476-1.093592c-2.823456 6.322951-32.121786 22.219806-84.673864 22.219806M131.728155 553.805049h253.514563v-42.252428h-253.514563zM131.728155 384.79534h253.514563v-42.252427h-253.514563zM237.33934 469.300194h42.27231v-42.252427h-42.27231zM258.485437 596.057476c-52.571961 0-81.870291-15.896854-84.504854-21.126214h-42.252428c0 43.564738 65.685126 63.378641 126.757282 63.378641 61.052272 0 126.757282-19.813903 126.757281-63.378641l-42.083417-1.093592c-2.823456 6.322951-32.111845 22.219806-84.683806 22.219806M575.378641 786.193398a63.378641 63.378641 0 1 1-126.757282 0v-63.378641h126.757282v63.378641zM596.504854 680.56233H427.485204a21.116272 21.116272 0 0 0-21.116272 21.126214v84.504854c0 58.338175 47.282951 105.631068 105.631068 105.631068 58.338175 0 105.621126-47.292893 105.621126-105.631068v-84.504854c0-11.671612-9.44466-21.126214-21.116272-21.126214z" fill="#2F333A" p-id="29739"></path></svg>