<?xml version="1.0" standalone="no"?><!DOCTYPE svg PUBLIC "-//W3C//DTD SVG 1.1//EN" "http://www.w3.org/Graphics/SVG/1.1/DTD/svg11.dtd"><svg t="1661720100372" class="icon" viewBox="0 0 1024 1024" version="1.1" xmlns="http://www.w3.org/2000/svg" p-id="9794" data-spm-anchor-id="a313x.7781069.0.i35" xmlns:xlink="http://www.w3.org/1999/xlink" width="200" height="200"><path d="M635.333 807.715l-60.156-47.249 55.249-56.028" fill="#DF1948" p-id="9795"></path><path d="M336.588 440.458h328.537L563.367 764.634l69.778 216.603H368.571l61.056-215.149z" fill="#E1F0EE" p-id="9796" data-spm-anchor-id="a313x.7781069.0.i32" class="selected"></path><path d="M424.735 979.453c0 14.708-11.92 26.63-26.627 26.63-14.707 0-26.63-11.922-26.63-26.63 0-14.706 53.257-14.706 53.257 0zM631.882 979.453c0 14.708-11.92 26.63-26.626 26.63-14.708 0-26.632-11.922-26.632-26.63 0.002-14.706 53.258-14.706 53.258 0z" fill="#E1F0EE" p-id="9797"></path><path d="M477.99 982.361c0 14.709-11.92 26.628-26.627 26.628-14.708 0-26.63-11.919-26.63-26.628 0.002-14.707 53.257-14.707 53.257 0zM580.08 982.361c0 14.709-11.92 26.628-26.626 26.628-14.708 0-26.629-11.919-26.629-26.628 0-14.707 53.255-14.707 53.255 0z" fill="#E1F0EE" p-id="9798"></path><path d="M527.487 984.998c0 14.706-11.924 26.63-26.629 26.63-14.708 0-26.629-11.924-26.629-26.63 0-14.707 53.258-14.707 53.258 0z" fill="#E1F0EE" p-id="9799"></path><path d="M421.795 744.494c-8.583 16.113-9.758 25.07 0 37.7h148.164V745.08c0.002 0-126.326 0.236-148.164-0.586z" fill="#EB6232" p-id="9800" data-spm-anchor-id="a313x.7781069.0.i33" class="selected"></path><path d="M611.257 812.474l-60.154-47.251 55.247-56.027" fill="#EB6232" p-id="9801"></path><path d="M620.215 488.307c-46.294 27.261-95.278 2.006-95.278 2.006s22.792-64.082 64.222-70.41c34.536-15.685 55.563 16.026 55.563 16.026s10.032 36.696-24.507 52.378z" fill="#E61C35" p-id="9802"></path><path d="M609.775 422.374c-32.673 42.646-87.552 37.634-87.552 37.634s-2.939-67.952 33.081-89.373c26.128-27.502 57.521-6.013 57.521-6.013s23.076 30.248-3.05 57.752z" fill="#E4507A" p-id="9803"></path><path d="M554.747 400.354c-14.706 51.67-67.587 67.186-67.587 67.186s-27.715-62.111-2.091-95.275c14.182-35.181 51.279-26.738 51.279-26.738s32.58 19.642 18.399 54.827z" fill="#E61C35" p-id="9804"></path><path d="M495.068 351.082c27.617 46.082 2.746 95.258 2.746 95.258s-64.26-22.292-70.909-63.669c-15.949-34.417 15.595-55.688 15.595-55.688s36.62-10.317 52.568 24.099z" fill="#E4507A" p-id="9805"></path><path d="M495.068 351.082c27.617 46.082 2.746 95.258 2.746 95.258s-64.26-22.292-70.909-63.669c-15.949-34.417 15.595-55.688 15.595-55.688s36.62-10.317 52.568 24.099z" fill="#E4507A" p-id="9806"></path><path d="M436.504 402.031c53.127 7.974 75.278 58.438 75.278 58.438s-58.06 35.431-94.228 14.258c-36.707-9.565-33.073-47.436-33.073-47.436s15.315-34.827 52.023-25.26z" fill="#E61C35" p-id="9807"></path><path d="M426.437 479.54c32.805-42.545 87.669-37.36 87.669-37.36s2.728 67.961-33.361 89.269c-26.208 27.425-57.535 5.833-57.535 5.833s-22.982-30.319 3.227-57.742z" fill="#E4507A" p-id="9808"></path><path d="M470.931 524.734c-1.774-53.693 43.85-84.612 43.85-84.612s45.352 50.687 31.074 90.091c-2.764 37.832-40.667 41.11-40.667 41.11s-37.025-8.756-34.257-46.589z" fill="#E61C35" p-id="9809"></path><path d="M533.753 534.328c-36.589-39.337-22.483-92.606-22.483-92.606s67.492 8.45 82.594 47.543c22.752 30.352-3.677 57.712-3.677 57.712s-33.68 17.703-56.434-12.649z" fill="#E4507A" p-id="9810"></path><path d="M483.58 443.009a21.804 18.535 0 1 0 43.608 0 21.804 18.535 0 1 0-43.608 0Z" fill="#E7D06B" p-id="9811"></path><path d="M482.844 391.222c-35.583 40.249-89.979 31.397-89.979 31.397s1.836-67.992 39.276-86.833c27.985-25.603 57.793-1.958 57.793-1.958s20.903 31.79-7.09 57.394z" fill="#E61C35" p-id="9812"></path><path d="M452.514 331.755c-17.873 50.663-71.608 62.884-71.608 62.884s-23.826-63.705 3.797-95.224c16.33-34.24 52.834-23.522 52.834-23.522s31.301 21.624 14.977 55.862z" fill="#E4507A" p-id="9813"></path><path d="M393.367 327.851c2.012 53.684-43.471 84.804-43.471 84.804s-45.58-50.484-31.48-89.949c2.598-37.846 40.484-41.298 40.484-41.298s37.063 8.596 34.467 46.443z" fill="#E61C35" p-id="9814"></path><path d="M321.372 299.467c40.522 35.271 32.095 89.733 32.095 89.733s-68.005-1.311-87.133-38.596c-25.82-27.792-2.41-57.782-2.41-57.782s31.629-21.145 57.448 6.645z" fill="#E4507A" p-id="9815"></path><path d="M321.372 299.467c40.522 35.271 32.095 89.733 32.095 89.733s-68.005-1.311-87.133-38.596c-25.82-27.792-2.41-57.782-2.41-57.782s31.629-21.145 57.448 6.645z" fill="#E4507A" p-id="9816"></path><path d="M281.449 366.043c52.987-8.862 89.67 32.268 89.67 32.268s-44.241 51.663-85.187 42.725c-37.866 2.265-46.132-34.873-46.132-34.873s3.784-37.857 41.649-40.12z" fill="#E61C35" p-id="9817"></path><path d="M295.868 442.862c18.026-50.611 71.801-62.662 71.801-62.662s23.628 63.778-4.091 95.209c-16.437 34.191-52.906 23.357-52.906 23.357s-31.237-21.718-14.804-55.904z" fill="#E4507A" p-id="9818"></path><path d="M352.167 472.063c-18.307-50.508 15.506-94.029 15.506-94.029s58.817 34.162 57.432 76.048c9.083 36.828-25.944 51.681-25.944 51.681s-37.916 3.131-46.994-33.7z" fill="#E61C35" p-id="9819"></path><path d="M414.872 461.745c-46.965-26.083-50.041-81.103-50.041-81.103s66.791-12.854 93.252 19.646c31.032 21.817 14.369 56.019 14.369 56.019s-26.548 27.254-57.58 5.438z" fill="#E4507A" p-id="9820"></path><path d="M365.368552 401.317931a18.534 21.804 71.971 1 0-11.472485-35.24796 18.534 21.804 71.971 1 0 11.472485 35.24796Z" fill="#E7D06B" p-id="9821"></path><path d="M705.648 476.024c-53.497-4.904-78.516-54.007-78.516-54.007s55.921-38.717 93.25-19.662c37.194 7.431 35.747 45.449 35.747 45.449s-13.281 35.656-50.481 28.22z" fill="#E61C35" p-id="9822"></path><path d="M735.674 416.399c-51.424 15.543-93.05-20.569-93.05-20.569s37.289-56.881 79.038-53.239c37.27-7.074 50.212 28.705 50.212 28.705s1.067 38.031-36.2 45.103z" fill="#E4507A" p-id="9823"></path><path d="M703.854 366.392c-42.105 33.36-94.095 15.08-94.095 15.08s13.764-66.608 53.929-78.569c32.058-20.281 57.243 8.234 57.243 8.234s14.983 34.971-17.077 55.255z" fill="#E61C35" p-id="9824"></path><path d="M684.179 291.547c-4.482 53.536-53.393 78.938-53.393 78.938s-39.151-55.619-20.39-93.092c7.146-37.255 45.176-36.106 45.176-36.106s35.754 13.007 28.607 50.26z" fill="#E4507A" p-id="9825"></path><path d="M684.179 291.547c-4.482 53.536-53.393 78.938-53.393 78.938s-39.151-55.619-20.39-93.092c7.146-37.255 45.176-36.106 45.176-36.106s35.754 13.007 28.607 50.26z" fill="#E4507A" p-id="9826"></path><path d="M606.883 298.713c38.475 37.494 26.99 91.396 26.99 91.396s-67.822-5.134-84.82-43.443c-24.215-29.196 0.85-57.822 0.85-57.822s32.767-19.332 56.98 9.869z" fill="#E61C35" p-id="9827"></path><path d="M553.454 355.76c51.474-15.387 92.986 20.857 92.986 20.857s-37.465 56.767-79.204 52.994c-37.289 6.96-50.115-28.859-50.115-28.859s-0.955-38.032 36.333-44.992z" fill="#E4507A" p-id="9828"></path><path d="M563.189 418.428c29.911-44.626 85.002-43.086 85.002-43.086s7.223 67.631-27.374 91.281c-24.333 29.101-57.018 9.632-57.018 9.632s-24.947-28.728-0.61-57.827z" fill="#E61C35" p-id="9829"></path><path d="M608.585 462.902c-6.735-53.301 35.825-88.311 35.825-88.311s49.851 46.266 39.288 86.822c0.751 37.928-36.684 44.708-36.684 44.708s-37.676-5.297-38.429-43.219z" fill="#E4507A" p-id="9830"></path><path d="M656.576 384.931c-5.978 8.31-18.745 9.345-28.523 2.312-9.775-7.031-12.855-19.467-6.877-27.773 5.973-8.312 18.745-9.348 28.521-2.318 9.777 7.033 12.858 19.47 6.879 27.779z" fill="#E7D06B" p-id="9831"></path><path d="M802.604 252.397c-46.294 27.259-95.279 2.003-95.279 2.003s22.792-64.084 64.225-70.412c34.534-15.685 55.561 16.025 55.561 16.025s10.034 36.702-24.507 52.384z" fill="#E61C35" p-id="9832"></path><path d="M792.167 186.461c-32.674 42.645-87.556 37.633-87.556 37.633s-2.939-67.95 33.084-89.374c26.127-27.503 57.52-6.013 57.52-6.013s23.076 30.251-3.048 57.754z" fill="#E4507A" p-id="9833"></path><path d="M737.134 164.44c-14.704 51.669-67.584 67.186-67.584 67.186s-27.715-62.111-2.093-95.275c14.182-35.182 51.277-26.737 51.277-26.737s32.583 19.643 18.4 54.826z" fill="#E61C35" p-id="9834"></path><path d="M677.46 115.169c27.616 46.081 2.742 95.26 2.742 95.26s-64.257-22.294-70.903-63.671c-15.951-34.418 15.59-55.689 15.59-55.689s36.622-10.317 52.571 24.1z" fill="#E4507A" p-id="9835"></path><path d="M677.46 115.169c27.616 46.081 2.742 95.26 2.742 95.26s-64.257-22.294-70.903-63.671c-15.951-34.418 15.59-55.689 15.59-55.689s36.622-10.317 52.571 24.1z" fill="#E4507A" p-id="9836"></path><path d="M618.893 166.119c53.129 7.974 75.28 58.438 75.28 58.438s-58.06 35.431-94.227 14.258c-36.708-9.565-33.074-47.438-33.074-47.438s15.316-34.827 52.021-25.258z" fill="#E61C35" p-id="9837"></path><path d="M608.828 243.628c32.806-42.546 87.669-37.362 87.669-37.362s2.729 67.962-33.359 89.27c-26.207 27.423-57.534 5.834-57.534 5.834s-22.986-30.32 3.224-57.742z" fill="#E4507A" p-id="9838"></path><path d="M653.319 288.82c-1.771-53.693 43.851-84.61 43.851-84.61s45.354 50.688 31.076 90.089c-2.764 37.835-40.667 41.112-40.667 41.112s-37.025-8.758-34.26-46.591z" fill="#E61C35" p-id="9839"></path><path d="M716.143 298.418c-36.59-39.338-22.481-92.608-22.481-92.608s67.487 8.452 82.593 47.542c22.754 30.353-3.677 57.714-3.677 57.714s-33.68 17.702-56.435-12.648z" fill="#E4507A" p-id="9840"></path><path d="M665.97 207.099a21.803 18.533 0 1 0 43.606 0 21.803 18.533 0 1 0-43.606 0Z" fill="#E7D06B" p-id="9841"></path><path d="M386.667 273.231c-46.296 27.261-95.277 2.005-95.277 2.005s22.792-64.083 64.222-70.412c34.537-15.685 55.562 16.024 55.562 16.024s10.033 36.701-24.507 52.383z" fill="#E61C35" p-id="9842"></path><path d="M376.229 207.296c-32.675 42.644-87.555 37.631-87.555 37.631s-2.939-67.95 33.082-89.373c26.126-27.504 57.521-6.013 57.521-6.013s23.077 30.253-3.048 57.755z" fill="#E4507A" p-id="9843"></path><path d="M321.197 185.276c-14.704 51.669-67.585 67.186-67.585 67.186s-27.716-62.112-2.093-95.275c14.184-35.183 51.279-26.738 51.279-26.738s32.582 19.644 18.399 54.827z" fill="#E61C35" p-id="9844"></path><path d="M261.522 136.005c27.615 46.08 2.743 95.259 2.743 95.259s-64.258-22.294-70.909-63.672c-15.948-34.416 15.595-55.688 15.595-55.688s36.622-10.317 52.571 24.101z" fill="#E4507A" p-id="9845"></path><path d="M261.522 136.005c27.615 46.08 2.743 95.259 2.743 95.259s-64.258-22.294-70.909-63.672c-15.948-34.416 15.595-55.688 15.595-55.688s36.622-10.317 52.571 24.101z" fill="#E4507A" p-id="9846"></path><path d="M202.955 186.954c53.127 7.975 75.279 58.438 75.279 58.438s-58.06 35.432-94.228 14.259c-36.707-9.566-33.073-47.439-33.073-47.439s15.315-34.827 52.022-25.258z" fill="#E61C35" p-id="9847"></path><path d="M192.887 264.464c32.804-42.548 87.669-37.362 87.669-37.362s2.729 67.961-33.356 89.271c-26.21 27.422-57.537 5.832-57.537 5.832s-22.983-30.321 3.224-57.741z" fill="#E4507A" p-id="9848"></path><path d="M237.382 309.655c-1.772-53.693 43.849-84.612 43.849-84.612s45.354 50.688 31.075 90.09c-2.762 37.832-40.667 41.109-40.667 41.109s-37.025-8.752-34.257-46.587z" fill="#E61C35" p-id="9849"></path><path d="M300.205 319.252c-36.589-39.338-22.481-92.608-22.481-92.608s67.488 8.452 82.591 47.544c22.757 30.351-3.678 57.713-3.678 57.713s-33.679 17.7-56.432-12.649z" fill="#E4507A" p-id="9850"></path><path d="M250.03 227.933a21.804 18.533 0 1 0 43.608 0 21.804 18.533 0 1 0-43.608 0Z" fill="#E7D06B" p-id="9851"></path><path d="M578.389 184.831c-46.297 27.26-95.278 2.004-95.278 2.004s22.791-64.084 64.224-70.411c34.534-15.685 55.558 16.024 55.558 16.024s10.034 36.701-24.504 52.383z" fill="#E61C35" p-id="9852"></path><path d="M567.95 118.896c-32.674 42.645-87.554 37.633-87.554 37.633s-2.94-67.95 33.082-89.373C539.605 39.653 571 61.143 571 61.143s23.074 30.251-3.05 57.753z" fill="#E4507A" p-id="9853"></path><path d="M512.917 96.876c-14.704 51.669-67.585 67.187-67.585 67.187s-27.716-62.112-2.091-95.275C457.423 33.606 494.52 42.05 494.52 42.05s32.582 19.643 18.397 54.826z" fill="#E61C35" p-id="9854"></path><path d="M453.244 47.603c27.616 46.08 2.744 95.259 2.744 95.259s-64.258-22.294-70.909-63.67c-15.949-34.418 15.595-55.689 15.595-55.689s36.62-10.316 52.57 24.1z" fill="#E4507A" p-id="9855"></path><path d="M453.244 47.603c27.616 46.08 2.744 95.259 2.744 95.259s-64.258-22.294-70.909-63.67c-15.949-34.418 15.595-55.689 15.595-55.689s36.62-10.316 52.57 24.1z" fill="#E4507A" p-id="9856"></path><path d="M394.676 98.555c53.127 7.974 75.28 58.438 75.28 58.438s-58.058 35.431-94.228 14.258c-36.706-9.566-33.073-47.439-33.073-47.439s15.313-34.826 52.021-25.257z" fill="#E61C35" p-id="9857"></path><path d="M384.609 176.064c32.804-42.546 87.668-37.362 87.668-37.362s2.729 67.961-33.358 89.27c-26.211 27.422-57.535 5.833-57.535 5.833s-22.981-30.32 3.225-57.741z" fill="#E4507A" p-id="9858"></path><path d="M429.103 221.256c-1.771-53.693 43.851-84.61 43.851-84.61s45.354 50.688 31.075 90.089c-2.762 37.832-40.667 41.111-40.667 41.111s-37.026-8.757-34.259-46.59z" fill="#E61C35" p-id="9859"></path><path d="M491.927 230.854c-36.59-39.339-22.482-92.607-22.482-92.607s67.49 8.451 82.592 47.542c22.754 30.352-3.677 57.713-3.677 57.713s-33.68 17.699-56.433-12.648z" fill="#E4507A" p-id="9860"></path><path d="M441.752 139.533a21.804 18.533 0 1 0 43.608 0 21.804 18.533 0 1 0-43.608 0Z" fill="#E7D06B" p-id="9861"></path><path d="M605.541 324.278c-46.297 27.26-95.281 2.005-95.281 2.005s22.794-64.084 64.224-70.411c34.536-15.685 55.561 16.024 55.561 16.024s10.034 36.702-24.504 52.382z" fill="#E61C35" p-id="9862"></path><path d="M595.104 258.345c-32.674 42.644-87.556 37.632-87.556 37.632s-2.939-67.95 33.083-89.373c26.125-27.503 57.519-6.013 57.519-6.013s23.078 30.25-3.046 57.754z" fill="#E4507A" p-id="9863"></path><path d="M540.07 236.323c-14.703 51.671-67.585 67.187-67.585 67.187s-27.713-62.112-2.092-95.275c14.182-35.184 51.28-26.739 51.28-26.739s32.579 19.645 18.397 54.827z" fill="#E61C35" p-id="9864" data-spm-anchor-id="a313x.7781069.0.i31" class="selected"></path><path d="M480.396 187.052c27.617 46.079 2.744 95.26 2.744 95.26s-64.257-22.294-70.907-63.67c-15.949-34.417 15.592-55.689 15.592-55.689s36.621-10.317 52.571 24.099z" fill="#E4507A" p-id="9865"></path><path d="M480.396 187.052c27.617 46.079 2.744 95.26 2.744 95.26s-64.257-22.294-70.907-63.67c-15.949-34.417 15.592-55.689 15.592-55.689s36.621-10.317 52.571 24.099z" fill="#E4507A" p-id="9866"></path><path d="M421.828 238.002c53.127 7.973 75.278 58.438 75.278 58.438s-58.059 35.432-94.227 14.258c-36.706-9.567-33.073-47.439-33.073-47.439s15.314-34.825 52.022-25.257z" fill="#E61C35" p-id="9867" data-spm-anchor-id="a313x.7781069.0.i30" class="selected"></path><path d="M411.761 315.511c32.804-42.545 87.67-37.362 87.67-37.362s2.727 67.961-33.358 89.271c-26.208 27.421-57.537 5.833-57.537 5.833s-22.981-30.319 3.225-57.742z" fill="#E4507A" p-id="9868"></path><path d="M456.256 360.704c-1.771-53.694 43.849-84.613 43.849-84.613s45.352 50.688 31.075 90.09c-2.764 37.832-40.667 41.111-40.667 41.111s-37.024-8.755-34.257-46.588z" fill="#E61C35" p-id="9869" data-spm-anchor-id="a313x.7781069.0.i29" class="selected"></path><path d="M519.079 370.301c-36.589-39.339-22.48-92.609-22.48-92.609s67.486 8.452 82.591 47.544c22.754 30.352-3.677 57.714-3.677 57.714s-33.682 17.699-56.434-12.649z" fill="#E4507A" p-id="9870" data-spm-anchor-id="a313x.7781069.0.i28" class="selected"></path><path d="M468.904 278.98a21.805 18.535 0 1 0 43.61 0 21.805 18.535 0 1 0-43.61 0Z" fill="#E7D06B" p-id="9871"></path></svg>