<?xml version="1.0" standalone="no"?><!DOCTYPE svg PUBLIC "-//W3C//DTD SVG 1.1//EN" "http://www.w3.org/Graphics/SVG/1.1/DTD/svg11.dtd"><svg t="1662023244909" class="icon" viewBox="0 0 1024 1024" version="1.1" xmlns="http://www.w3.org/2000/svg" p-id="2562" xmlns:xlink="http://www.w3.org/1999/xlink" width="200" height="200"><path d="M773 302.4c-20.2-21-42.6-39.6-66.9-55.5-54.5-38.1-111.8-72.1-171.4-101.7-35.3-17.7-71.8-32.7-109.3-44.9-17.1-6.3-35.5-8.5-53.6-6.5-20.4 3.1-37.8 16.4-46.2 35.3-3.2 7.7-5.7 15.7-7.6 23.8h0.2v-0.1l0.3-1.5 0.1 0.4 3.6 0.5c18.1 4.9 36.2 10.4 54.1 15.6 40.4 13 79.9 28.8 118.2 47.3 32.8 16.3 65.8 32.5 97.5 51.2 16.5 9.1 32.4 19.2 47.7 30.2 13.5 9 25 20.5 34 34 7.5 11.5 8.5 26.2 2.6 38.6-8.2 17-24.3 27.8-39 39-44.9 32.1-92.4 60.4-142.1 84.5-32.2 16.2-65.5 29.9-99.7 41.2-16.3 5.5-32.9 10.5-49.6 14.8-12 2.8-23.8 6.4-35.8 9.3l-0.8 1.1c2.4 13.9 8.5 26.9 17.7 37.7 11.4 11.8 26.7 19.1 43.1 20.3 27.4 2.6 54.5-5 80.2-13.8 39.8-14.2 78.2-32.2 114.6-53.8 70.5-42.2 136-92 195.5-148.7 14.2-14.4 28.6-31 31.2-51.8 1.6-17.5-7.5-33.8-18.6-46.5z" fill="#10ABF2" p-id="2563" data-spm-anchor-id="a313x.7781069.0.i5" class=""></path><path d="M297.9 449.4c-1.6-21.8-0.9-43.7-1.1-65.6-0.5-14.6-0.2-29.2 0.9-43.8 0.6-15.1 1.3-30.2 1.7-45.5 2.1-13 1.6-26 3.6-39 1.2-10.3 2.3-20.6 2.9-31 3.7-24 6.5-48.2 12.2-71.9l0.3-1.5 0.1 0.3c0-0.1 0.1-0.2 0.1-0.4-18.1-3.3-37.9-5.7-55.1 2.5-11.2 6-19.7 16.1-23.6 28.1-7.7 22.6-13.1 46-16.3 69.6-4.4 28.9-7 58-7.9 87.2-0.2 55.9 4.4 111.8 13.9 166.9 4 17.1 8.3 36.7 23.9 47.2 15.6 10.5 35.5 8.1 52.7 4.9v-5c-2.3-17.5-4.1-35-5.5-52.5-1.3-16.6-2.2-33.5-2.8-50.5z" fill="#FF8F21" p-id="2564" data-spm-anchor-id="a313x.7781069.0.i4" class=""></path><path d="M318.5 151.6l3.6 0.5c18.1 4.9 36.2 10.4 54.1 15.6 40.4 13 79.9 28.8 118.2 47.3 32.8 16.3 65.8 32.5 97.5 51.2 16.5 9.1 32.4 19.2 47.7 30.2 13.5 9 25 20.5 34 34 7.5 11.5 8.5 26.2 2.6 38.6-8.2 17-24.3 27.8-39 39-44.9 32.1-92.4 60.4-142.1 84.5-46.4 23.3-95.2 41.6-145.5 54.6-12 2.9-23.8 6.5-35.8 9.2l-6.8 1.2c-0.3-2.9-0.7-5.8-1.1-8.7-4.4-33-7-66.2-8-99.5-1.6-21.8-0.9-43.7-1.1-65.6-0.5-14.6-0.2-29.2 0.9-43.8 0.6-15.1 1.3-30.2 1.7-45.5 2.1-13 1.6-26 3.6-39 1.2-10.3 2.3-20.6 2.9-31 3.7-24 6.5-48.2 12.2-71.9l0.3-1.5m68.5 87.2c-6.3 2.3-10.3 8.4-9.9 15-0.5 9.6-0.3 19.3 0.5 28.9 0.4 28.7-0.5 57.5 0.5 86.2v76.4c-0.9 6.5 2.1 12.9 7.5 16.4 6.6 1.7 13.6 0.3 19-3.9 46.2-31.2 92.8-62 139.1-93 5.8-4.2 12.1-10.1 11.4-17.9-1.3-7.4-6.1-13.7-13-16.8l-141.3-87.7c-4-2.8-8.9-4.1-13.8-3.6z m0 0" fill="#7DE621" p-id="2565" data-spm-anchor-id="a313x.7781069.0.i2" class=""></path><path d="M386.9 238.2c4.9-0.5 9.8 0.8 13.8 3.7l141.6 87.7c6.9 3.1 11.7 9.4 13 16.8 0.7 7.8-5.5 13.8-11.4 17.9-46.2 31-92.9 61.8-139.1 93-5.4 4.1-12.3 5.6-18.8 4-5.3-3.5-8.2-9.8-7.5-16.1v-76.5c-1-28.7 0-57.5-0.5-86.2-1-9.7-1.3-19.5-0.9-29.2-0.4-6.7 3.7-12.8 9.9-15h-0.1z m0 0" fill="#FFFFFF" p-id="2566" data-spm-anchor-id="a313x.7781069.0.i3" class=""></path><path d="M225.8 761c-9.2 0-15.5 0.2-21.9-0.1-3.1-0.2-8.6 2.1-7.5-4.6 0.6-3.9 0.9-8.7 7.1-8.6 8.9 0.1 17.9-0.4 26.7 0.1 7.7 0.5 12.3-2.4 15.1-11.4-10.3 0-19.9 0.3-29.4-0.2-2.8-0.1-8.7 2.6-7.8-4.2 0.6-4.4 1.3-9.6 8.2-9.1 4.6 0.4 9.3 0.1 15.1 0.1-2.6-9.5-9.3-16.1-10-25.4 10.7-3.4 18.7-1.7 21.9 10.7 0.6 2.2 2.3 4 3.6 6 5 7.4 9 9.9 13.8-0.8 4.3-9.6 7.2-23.6 24-15.3-3.6 7.7-7.5 16-11.7 25.1 24.3 3.5 27.9-31.4 53-26.1-4.5 9.9-12.5 16-17.9 23.5 2.3 3.8 5.5 2.3 8 2.5 4.2 0.4 7.3 0.7 6.5 6.4-0.7 4.5-2.4 6.6-7.1 6.5-14.1-0.1-28.2 0.1-42.2-0.1-6.9-0.1-11.9 1.6-13.2 11.3 18.9 0 37.3-0.2 55.7 0.2 3.3 0.1 9.3-3.1 9.4 4.3 0 5.8-1.9 10-9.1 9.4-5.1-0.5-10.3-0.1-16.2-0.1 0.3 8.5 6.1 12.5 11 17.1 3.2 3 10.8 3.7 6 11.3-4.7 7.4-8.9-0.6-13.9 0.2-1.8 8-2.7 14.6 0.8 24.2 5.3 14.6-2.2 31.2-8.8 45.6-4.6 10-15.6 8.8-25 8.9-18.8 0-37.5 0-56.3-0.1-0.9 0-1.7-0.6-2.8-1-0.5-8.3 3.3-11.3 11.6-11 15.5 0.5 31 0.4 46.4 0.1 11.6-0.2 24.1-20.7 19.5-31.3-2.2-5-6.9-4.1-11-4.2-17.8-0.1-35.7 0.1-53.5 0-15.6-0.1-17.6-2.3-13.3-18.8 3-11.4 2.2-16.1-10.9-10.8-2.7 1.1-8.7 5.2-10-2.2-0.9-4.9 1.1-9.2 7-10.4 10.8-2 19.7-7.2 29.1-17.7z m28.4 47.9c7.9 0 15.8-0.3 23.7 0.1 10.8 0.5 8.1-8.5 9.4-13.8 1.6-6.8-4.4-7.2-9-7.3-13.5-0.2-27 0.5-40.5-0.3-11.9-0.6-10.6 8.2-11.7 14.9-1.8 11.1 7.2 5.3 11.3 6.1 5.5 1 11.2 0.3 16.8 0.3zM236.7 774h50.2c-3.1-5.7-2.3-13.2-10.2-12.4-13.8 1.4-30.6-6.9-40 12.4z" fill="#46484A" p-id="2567"></path><path d="M175.1 696.2c3 0 8.2-0.6 13.3 0.1 9.6 1.3 13.8 6.6 11.5 16.7-10.3 46.6-20.5 93.3-30.5 139.9-2.5 11.6-8.8 17.2-20.8 15.6-2.8-0.4-7.6 1.8-7.6-3.2 0-3.3-0.3-9.4 4-9.4 12.4 0 10.5-9.7 12.6-16.6 1.5-4.9 3.2-10.1 3.1-15.1-0.1-4.9 7.4-12.7-3.3-14.4-8.5-1.4-16.5-1.3-17.8 11.3-1.2 11.6-4.6 22.9-7.2 34.3-2.3 9.6-8.4 14.3-18.4 13.1-2.9-0.4-7.4 1.8-7.9-3.1-0.3-3.5 0.4-8.9 4.4-9.4 9.6-1.1 8.8-8.5 10.1-14.5 9.1-41.1 18.2-82.2 27.2-123.4 4.3-20.7 4.2-20.7 27.3-21.9zM157 795.5c4-0.5 9.6 2.2 10.7-5.1 1.6-10.3 6.7-20.1 4.7-30.9-0.1-0.4-1.6-0.7-2.5-0.8-8.5-0.4-18.2-2.9-19 10.8-0.3 5-1.8 10.1-3 15-2.1 7.9-1.1 13.1 9.1 11z m11.2-50.2c8 2.2 10.6-2.4 11.7-9.3 0.8-5 2.5-9.9 3.3-15 0.6-4.2 3.7-10.1-3.3-11.4-6.2-1.2-13.5-2-16.4 5.9-2.2 6.1-2.9 12.7-4.5 18.9-2.3 8.2-0.6 12.9 9.2 10.9zM760.4 795.8c8-8.1 13.7-20.1 29-13.3-25.4 33.3-44.7 72.6-90.6 84.1-4.1 1-10.1 5.1-11.8-1.1-1.4-4.9 0.8-10.6 8.6-11.8 7.9-1.2 14.8-5.6 21.4-10.1 12.2-8.3 24.1-15.9 23.3-34.2-0.5-10.4 3.7-21.1 6.6-31.5 3.1-11 1.6-16.7-11.8-15.3-10.2 1-20.6 0.2-31 0.1-3.7 0-7.9 0.5-7.3-5.5 0.4-4.3 2.2-7.8 6.9-6.7 18.2 4.1 19.2-8.8 21.2-20.9 1-6 2.1-12 3.6-17.9 1.5-6.1 6.7-3.8 10.5-3.8 5.6 0.1 3.7 4.4 3.1 7.3-1.5 7.8-3.8 15.5-4.7 23.4-0.4 3.9-6.1 10.4 3.6 11.8 7.6 1.1 10.9-2.1 12.1-9.6 2.1-12.5 5.5-24.7 7.4-37.2 1.1-7.4 4.8-9.6 11.3-8.3 7.9 1.6 4.2 7.7 3 11.2-4.1 11.3 0 14.5 10.7 12.9 2.8-0.4 5.6-0.2 8.4 0 3.4 0.3 8-1.3 7.6 5.1-0.3 4.8-1.8 8.2-7.4 8.1-5.2-0.1-10.4 0.4-15.5-0.1-9.2-1-11 4.5-11.6 11.8-0.7 9.8 6.7 5.2 10.7 5.9 3.6 0.7 7.5-0.1 11.2 0.2 2.8 0.2 7.4-1.8 7.1 3.8-0.2 4.1-0.4 8.9-6.7 8.6-0.9-0.1-1.9 0-2.8 0-24.2 1.5-28.1 6.1-26.1 33z" fill="#4A4C4E" p-id="2568"></path><path d="M849.7 732.8c32.2 5 32.2 5 25.3 38.4-3 14.7-6.1 29.3-9 44-1.3 6.5-1.6 13.8-11.4 11.8-10.9-2.2-2.9-9.4-2.3-13.1 2.9-18 6.9-35.8 10.9-53.6 2.1-9.1 1.2-13.4-10.1-13.4-35.1-0.1-35.1-0.5-42.8 33.8-2.6 11.9-5.1 23.8-7.4 35.7-1.3 6.3-2.8 12.1-11.3 10.1-9.1-2.2-3.3-8.1-2.4-12.1 4.7-22.9 10.3-45.7 14.7-68.6 1.6-8.4 5.1-11.4 13.1-10 5.8 1 11.4 0.8 15.2-4.6 3.4-4.9 9.9-10.2 7.9-15.5-2-5.5-9.9-1.7-15.2-2.3-4.2-0.5-8.5 0.2-12.6-0.1-3.2-0.3-8.3 2-7.8-4.6 0.4-5 2.7-7.5 8.1-7.4 10.8 0.2 21.6 0 32.4 0 14.1 0 28.1-0.2 42.2 0.2 3.3 0.1 9.4-3.2 9.1 4.5-0.3 6-4 7.8-9.6 7.3-3.3-0.3-6.7 0.5-9.8-0.2-16.3-3-24.3 4.8-27.2 19.7zM616.8 831.8c-15.8 15.5-32.5 28.7-53.8 34.4-4.2 1.1-10.3 6.3-12.6-0.7-2-6 3.2-9.4 9.1-11.9 38.4-16.2 61.3-44.6 67.4-86.3 1.9-12.9 5.7-25.6 7.5-38.5 1.1-8 6.1-7 11.1-6.7 7.7 0.5 4 6.1 3.5 9.5-0.9 6.9-2.5 13.8-4 20.6-6.9 31.8-2.4 65-12.6 96.4-2.1 6.4 2.4 8 7.9 7.9 10.3-0.1 20.6-0.1 30.9 0 3.2 0 7-0.5 6.5 4.7-0.4 3.9-0.8 7.5-6.1 7.4-15.5-0.1-30.9 0.2-46.4-0.2-9.8-0.3-10.5-7.6-9.7-15.2 0.6-6.6 4.9-13 1.3-21.4zM451 699.5c11.3 0 22.5-0.4 33.8 0.1 18.4 0.7 23.5 7.1 19.8 25.1-8.1 39.4-16.1 78.9-25.3 118-2.7 11.6 0.3 13.4 10.7 13.7 5.6 0.2 16.4-6.1 16.6 4.9 0.2 11.4-11 7-17.6 7.1-32 0.4-31.9 0.3-25-30.9 7.9-35.6 15.6-71.3 23.2-107 3.1-14.5 0.7-17.6-14.4-17.8-19.7-0.3-39.4 0-59.1-0.2-3.5 0-9.4 2.3-8.4-5.4 0.7-5.2 2.9-8 9.1-7.7 12.2 0.5 24.4 0.1 36.6 0.1z" fill="#4A4C4E" p-id="2569"></path><path d="M642.1 701.1c10.3 0 20.7-0.8 30.9 0.2 13 1.3 17.2 7.7 14.5 20.2-5.6 26.1-11.7 52-17.2 78.1-1.5 7.3-3.8 13.1-12.4 10.4-9.2-2.9-2.6-9.6-1.7-13.9 4.6-22.9 9.8-45.7 15.2-68.5 2.6-10.8-0.2-15.2-12.1-15.1-49.3 0.5-38.8-2-48.4 37.2-4.1 16.8-8 33.7-11.2 50.7-1.4 7.1-3.9 11.2-11.6 9.9-9.3-1.6-3.9-8.3-3.1-11.9 6.1-29.8 12.9-59.4 19.2-89.1 1.4-6.5 3.9-9.8 11.3-9.2 8.8 0.7 17.7 0.2 26.6 0.2v0.8zM534.8 793.7c-7.4 8.3-14.7 16.7-22.1 25-1.1-1-2.2-2.1-3.3-3.1 5.3-35.8 40.6-50.3 57.7-79.9-12.7 0-24.7 0.1-36.6-0.1-3.3 0-8 1.8-8.1-4.5-0.1-5.7 2.2-8.7 8.3-8.6 15 0.2 30.1-0.5 45 0.4 12.7 0.8 15 7.2 8.1 17.9-5.6 8.7-19.2 13.3-17.4 24.9 1.5 9.6 8.5 18.4 13.1 27.6-10.7 5.2-16.6-0.8-22.4-11.5-6.2 27.6-12.1 52.4-17.1 77.3-1.5 7.5-3.9 10.9-11.7 9.6-10-1.7-3.5-8.5-2.9-11.9 3.8-20.2 8.5-40.3 12.8-60.4 0.8-2 1.5-3.9-0.1-5.9-1 1.2-2.1 2.2-3.3 3.2zM401.5 771.2c14.7 4.7 20.1-4.6 21.9-19.5 1.1-8.8 4.4-17.3 5.5-26.1 1-8.3 6.7-6.7 11.4-6.3 7.7 0.6 3.6 6.3 3 9.5-2.1 11-4.6 22-7.5 32.8-1.8 6.8-0.2 9.6 7.1 9.2 6.5-0.4 13.1-0.3 19.7 0.1 3.1 0.2 8.7-2 7.9 4.4-0.5 4.4-1.5 9.7-8.3 8.6-0.9-0.1-1.9-0.1-2.8 0-27.7 0.8-27.7 0.8-33.8 27.4-3.7 16-7.5 31.9-10.4 48-1.4 7.6-4.8 10.6-12.3 9.3-9.6-1.8-3.7-7.9-2.9-11.9 4.3-21.6 8.9-43.1 13.9-64.5 1.5-6.5 0.1-8.5-6.4-8.1-7 0.4-14.1 0.3-21.1 0-3.2-0.2-8.3 2.1-8.3-4.2 0-5.4 2.1-9 8.4-8.7 4.2 0.2 8.4 0 15 0zM825.3 830.2c-17 22.6-37.8 36.8-66.2 38.3-0.1-9.1 2.9-13 11.3-15.7 27.4-8.8 45.7-26.6 50.7-56.3 1.9-11.1 5.7-21.8 7.4-32.9 1.2-7.8 6.1-7.4 11.2-6.6 6.9 1.1 3.7 6.4 3.2 10.1-0.8 5.5-1.9 11.2-3.9 16.4-10.3 26.4 0.6 47 17.5 66.1 1.5 1.8 3.2 3.4 5 4.9 4.7 3.9 1.8 7.5-0.3 11.1-3.3 5.6-6.6 1.2-9.1-0.6-11.9-8.9-18.2-22.3-26.8-34.8zM358.6 868.9c-23.7 0-24.7-1.2-20-23.8 5.1-24.3 9.6-48.7 15.3-72.9 2.2-9.2-0.1-11.8-9-11.7-3.6 0-10.3 3.4-9.8-5.3 0.4-6.5 3.9-8 10.2-8.2 24.8-0.7 28.7 3.5 23.6 27.2-5 23.4-9.7 46.8-15.1 70.1-2.1 9.2-1.3 14.7 10 12.8 2.3-0.4 4.7-0.4 7 0.1 3 0.6 8.4-2.6 8.1 4.1-0.2 4.8-2.3 7.9-7.8 7.5-4.1-0.2-8.3 0-12.5 0.1zM693.9 834.9c-4.7 0-6.6-2-4.8-5.2 2.7-4.8 1.9-10.6 6.7-15 10.8-10 19.1-22.1 23.5-36.2 2.5-7.9 7.9-7.7 13.2-6.2 7.1 2 1.8 7.4 0.8 10.4-6.3 19.8-18.3 35.8-34.4 48.7-1.8 1.3-3.8 2.6-5 3.5z" fill="#4A4C4E" p-id="2570" data-spm-anchor-id="a313x.7781069.0.i6" class=""></path><path d="M231.1 844.2c-12.2 0-24.4 0.1-36.5-0.1-2.7 0-7.4 1.8-6.8-4 0.4-3.4 2.2-6.2 6.4-6.2h80.1c2.3 0 5.2 0.1 4.7 3.4-0.5 3.8-2.1 6.9-7.1 6.9-13.6-0.2-27.2 0-40.8 0z" fill="#46484A" p-id="2571"></path><path d="M378.9 726c0.4 3.1-2.8 3.6-4.9 5.1-3.5 2.5-5.9 1.6-8-1.7-5.2-8.2-10.6-16.3-15.7-24.6-1.5-2.5-5.3-5.9-2.1-8.4 3.2-2.5 9.6-2.7 11.6 0.1 7 9.2 12.6 19.3 19.1 29.5zM565.3 694.8c5.3-0.2 7.2 2.1 5.4 6.8-2.3 6.1 1.7 16-9.7 16.7-3.8 0.3-8.4 0.1-6-5.8 2.6-6.3-1.5-16.9 10.3-17.7z" fill="#4A4C4E" p-id="2572"></path></svg>